# xmcd
#
# Track frame offsets:
#      182
#      20095
#      40015
#      59837
# 
# Disc length: 1060 seconds
#
# Revision: 1
# Processed by: cddbd v1.4PL0 Copyright (c) Steve Scherf et al.
#
# Submitted via: FreeRIP 1.21
#
DISCID=33042204
DTITLE=Jurassic 5 - Unified Rebelution CD Single
DYEAR=1995
DGENRE=Hip-Hop
TTITLE0=Unified Rebelution (Radio)
TTITLE1=Unified Rebelution (LP Version)
TTITLE2=Unified Rebelution (Instrumental)
TTITLE3=Unified Rebelution (Acappella
EXTD=1995: Blunt Recordings
EXTT0=
EXTT1=
EXTT2=
EXTT3=
PLAYORDER=
